<?xml version="1.0" encoding="UTF-8"?>
<svg xmlns="http://www.w3.org/2000/svg" width="840" height="320" viewBox="0 0 840 320">
  <rect width="840" height="320" fill="#0d1117" rx="12"/>

  <!-- Title -->
  <text x="420" y="35" font-family="-apple-system, BlinkMacSystemFont, 'Segoe UI', system-ui, sans-serif" font-size="16" font-weight="700" fill="#e6edf3" text-anchor="middle">Canon Divergence: Same Seed, Different World State</text>

  <!-- Fresh track -->
  <text x="30" y="88" font-family="-apple-system, BlinkMacSystemFont, 'Segoe UI', system-ui, sans-serif" font-size="13" font-weight="700" fill="#8b949e">FRESH</text>
  <text x="30" y="106" font-family="-apple-system, BlinkMacSystemFont, 'Segoe UI', system-ui, sans-serif" font-size="10" fill="#8b949e">seed 51, no canon</text>
  <line x1="120" y1="95" x2="800" y2="95" stroke="#30363d" stroke-width="2"/>

  <!-- Fresh events (representative dots) -->
  <circle cx="140" cy="95" r="6" fill="#f78166" stroke="#f78166" stroke-width="2"/>
  <circle cx="195" cy="95" r="5" fill="#58a6ff"/>
  <circle cx="245" cy="95" r="5" fill="#58a6ff"/>
  <circle cx="290" cy="95" r="4" fill="#39d353"/>
  <circle cx="340" cy="95" r="5" fill="#58a6ff"/>
  <circle cx="385" cy="95" r="4" fill="#39d353"/>
  <circle cx="435" cy="95" r="6" fill="#a371f7"/>
  <circle cx="485" cy="95" r="5" fill="#58a6ff"/>
  <circle cx="535" cy="95" r="4" fill="#39d353"/>
  <circle cx="585" cy="95" r="7" fill="#f47067"/>
  <circle cx="635" cy="95" r="5" fill="#58a6ff"/>
  <circle cx="680" cy="95" r="4" fill="#39d353"/>
  <circle cx="730" cy="95" r="5" fill="#a371f7"/>
  <circle cx="780" cy="95" r="4" fill="#8b949e"/>

  <!-- Canon track -->
  <text x="30" y="178" font-family="-apple-system, BlinkMacSystemFont, 'Segoe UI', system-ui, sans-serif" font-size="13" font-weight="700" fill="#d29922">CANON</text>
  <text x="30" y="196" font-family="-apple-system, BlinkMacSystemFont, 'Segoe UI', system-ui, sans-serif" font-size="10" fill="#d29922">seed 51 + Story A</text>
  <line x1="120" y1="185" x2="800" y2="185" stroke="#30363d" stroke-width="2"/>

  <!-- Canon events (different from first event onward) -->
  <circle cx="140" cy="185" r="6" fill="#d29922" stroke="#d29922" stroke-width="2"/>
  <circle cx="195" cy="185" r="5" fill="#a371f7"/>
  <circle cx="245" cy="185" r="6" fill="#58a6ff"/>
  <circle cx="290" cy="185" r="4" fill="#39d353"/>
  <circle cx="340" cy="185" r="6" fill="#a371f7"/>
  <circle cx="385" cy="185" r="5" fill="#58a6ff"/>
  <circle cx="435" cy="185" r="7" fill="#f47067"/>
  <circle cx="485" cy="185" r="5" fill="#58a6ff"/>
  <circle cx="535" cy="185" r="6" fill="#a371f7"/>
  <circle cx="585" cy="185" r="5" fill="#39d353"/>
  <circle cx="635" cy="185" r="7" fill="#f47067"/>
  <circle cx="680" cy="185" r="5" fill="#58a6ff"/>
  <circle cx="730" cy="185" r="4" fill="#39d353"/>
  <circle cx="780" cy="185" r="5" fill="#a371f7"/>

  <!-- Divergence marker -->
  <line x1="140" y1="65" x2="140" y2="210" stroke="#f78166" stroke-width="1" stroke-dasharray="4,3" opacity="0.6"/>
  <text x="140" y="58" font-family="-apple-system, BlinkMacSystemFont, 'Segoe UI', system-ui, sans-serif" font-size="10" font-weight="600" fill="#f78166" text-anchor="middle">divergence</text>

  <!-- Fresh stats -->
  <text x="140" y="132" font-family="-apple-system, BlinkMacSystemFont, 'Segoe UI', system-ui, sans-serif" font-size="10" fill="#8b949e">protagonist: thorne | 2,156 words | 2 scenes | arc: fallback</text>

  <!-- Canon stats -->
  <text x="140" y="222" font-family="-apple-system, BlinkMacSystemFont, 'Segoe UI', system-ui, sans-serif" font-size="10" fill="#d29922">protagonist: victor | 2,813 words | 3 scenes | arc: valid</text>

  <!-- Legend -->
  <circle cx="140" cy="270" r="5" fill="#f78166"/>
  <text x="152" y="274" font-family="-apple-system, BlinkMacSystemFont, 'Segoe UI', system-ui, sans-serif" font-size="10" fill="#8b949e">confide</text>
  <circle cx="220" cy="270" r="5" fill="#d29922"/>
  <text x="232" y="274" font-family="-apple-system, BlinkMacSystemFont, 'Segoe UI', system-ui, sans-serif" font-size="10" fill="#8b949e">reveal</text>
  <circle cx="290" cy="270" r="5" fill="#58a6ff"/>
  <text x="302" y="274" font-family="-apple-system, BlinkMacSystemFont, 'Segoe UI', system-ui, sans-serif" font-size="10" fill="#8b949e">chat</text>
  <circle cx="345" cy="270" r="5" fill="#a371f7"/>
  <text x="357" y="274" font-family="-apple-system, BlinkMacSystemFont, 'Segoe UI', system-ui, sans-serif" font-size="10" fill="#8b949e">observe</text>
  <circle cx="420" cy="270" r="5" fill="#39d353"/>
  <text x="432" y="274" font-family="-apple-system, BlinkMacSystemFont, 'Segoe UI', system-ui, sans-serif" font-size="10" fill="#8b949e">internal</text>
  <circle cx="500" cy="270" r="5" fill="#f47067"/>
  <text x="512" y="274" font-family="-apple-system, BlinkMacSystemFont, 'Segoe UI', system-ui, sans-serif" font-size="10" fill="#8b949e">catastrophe</text>
  <circle cx="600" cy="270" r="5" fill="#8b949e"/>
  <text x="612" y="274" font-family="-apple-system, BlinkMacSystemFont, 'Segoe UI', system-ui, sans-serif" font-size="10" fill="#8b949e">other</text>

  <text x="140" y="300" font-family="-apple-system, BlinkMacSystemFont, 'Segoe UI', system-ui, sans-serif" font-size="10" fill="#484f58">18 inherited beliefs | starting tension: dining_table=0.97, foyer=0.52 | first event: confide vs reveal</text>
</svg>
